<svg xmlns="http://www.w3.org/2000/svg" width="120.000000pt" height="107.000000pt" viewBox="0 0 120.000000 107.000000" preserveAspectRatio="xMidYMid meet"><g transform="translate(0.000000,107.000000) scale(0.100000,-0.100000)" fill="#000000" stroke="none"><path d="M82 1043 c-40 -8 -56 -46 -54 -137 2 -114 21 -275 36 -311 32 -75 113 -124 220 -134 l71 -7 -53 -12 c-165 -37 -211 -98 -157 -207 58 -118 190 -224 263 -209 64 13 125 99 168 237 10 31 20 57 24 57 3 0 16 -35 29 -79 57 -197 136 -251 260 -180 145 83 219 232 151 304 -31 33 -82 60 -146 77 l-49 13 71 6 c107 10 188 59 220 134 15 36 34 197 36 311 1 61 -2 88 -15 107 -50 76 -194 12 -357 -160 -74 -78 -179 -216 -193 -255 -2 -7 -6 -11 -8 -8 -2 3 -31 45 -63 94 -33 48 -96 126 -140 173 -128 135 -237 200 -314 186z"></path></g></svg>