<svg xmlns="http://www.w3.org/2000/svg" width="640.000000pt" height="566.000000pt" viewBox="0 0 640.000000 566.000000" preserveAspectRatio="xMidYMid meet"><g transform="translate(0.000000,566.000000) scale(0.100000,-0.100000)" fill="#000000" stroke="none"><path d="M440 5536 c-196 -55 -304 -227 -326 -519 -12 -177 77 -1301 136 -1717 26 -178 50 -262 114 -395 139 -289 376 -492 699 -600 259 -86 535 -108 887 -70 33 3 11 -4 -57 -19 -555 -122 -914 -337 -1048 -629 -85 -186 -74 -380 34 -602 66 -138 150 -247 310 -405 494 -491 935 -594 1312 -305 89 69 213 208 293 328 128 192 235 421 350 747 24 69 49 125 56 125 7 0 32 -56 56 -125 168 -478 325 -763 538 -976 121 -121 206 -179 325 -220 329 -114 690 27 1092 426 160 158 244 267 310 405 62 127 89 232 89 344 0 419 -387 729 -1105 887 -68 15 -89 22 -55 19 587 -63 1039 50 1345 337 157 146 287 375 330 578 58 276 176 1651 161 1867 -26 356 -179 532 -464 533 -394 0 -932 -334 -1451 -903 -431 -472 -885 -1103 -1116 -1551 -28 -52 -52 -96 -55 -96 -3 0 -27 44 -55 97 -182 351 -533 864 -868 1265 -506 608 -959 978 -1379 1126 -168 60 -348 78 -458 48z"></path></g></svg>