<svg xmlns="http://www.w3.org/2000/svg" xmlns:xlink="http://www.w3.org/1999/xlink" width="640" zoomAndPan="magnify" viewBox="0 0 480 424.499987" height="566" preserveAspectRatio="xMidYMid meet"><defs><clipPath id="b8dc60575e"><path d="M 0.28125 422 L 1 422 L 1 424 L 0.28125 424 Z M 0.28125 422 "></path></clipPath><clipPath id="3b0b8f05a9"><path d="M 0.28125 1 L 0.761719 1 L 0.761719 2 L 0.28125 2 Z M 0.28125 1 "></path></clipPath><clipPath id="d63707540e"><rect x="0" width="1" y="0" height="2"></rect></clipPath></defs><g id="c700cad281"><path style=" stroke:none;fill-rule:evenodd;fill:#ffffff;fill-opacity:1;" d="M 108.867188 34.15625 C 161.863281 74.105469 218.664062 154.824219 239.863281 198.578125 C 261.332031 154.824219 318.132812 74.105469 371.128906 34.15625 C 409.722656 5.074219 471.960938 -16.941406 471.960938 54.539062 C 471.960938 68.667969 463.804688 174.117188 458.914062 191.242188 C 442.335938 250.488281 382 265.707031 328.191406 256.464844 C 422.222656 272.5 446.140625 325.769531 394.503906 379.039062 C 296.390625 479.867188 253.722656 353.492188 242.582031 321.148438 C 241.222656 317.34375 240.40625 314.898438 239.863281 314.082031 C 239.589844 314.898438 238.777344 317.34375 237.417969 321.148438 C 226.273438 353.492188 183.332031 479.867188 85.496094 379.039062 C 33.855469 325.769531 57.773438 272.5 151.808594 256.464844 C 97.996094 265.707031 37.660156 250.488281 20.8125 191.242188 C 16.191406 174.117188 8.039062 68.667969 8.039062 54.539062 C 8.039062 -16.941406 70.273438 5.074219 108.867188 34.15625 Z M 108.867188 34.15625 "></path><g clip-rule="nonzero" clip-path="url(#b8dc60575e)"><g transform="matrix(1,0,0,1,0.000000000000000056,422)"><g clip-path="url(#d63707540e)"><g clip-rule="nonzero" clip-path="url(#3b0b8f05a9)"><g style="fill:#000000;fill-opacity:1;"><g transform="translate(0.28236, 1.767519)"><path style="stroke:none" d="M 0.359375 -0.078125 L 0.390625 -0.03125 C 0.378906 -0.0195312 0.363281 -0.0078125 0.34375 0 C 0.320312 0.0078125 0.296875 0.015625 0.265625 0.015625 C 0.171875 0.015625 0.125 -0.0351562 0.125 -0.140625 L 0.125 -0.46875 L 0.03125 -0.46875 L 0.03125 -0.546875 L 0.125 -0.546875 L 0.125 -0.65625 L 0.203125 -0.671875 L 0.203125 -0.546875 L 0.375 -0.546875 L 0.375 -0.46875 L 0.203125 -0.46875 L 0.203125 -0.15625 C 0.203125 -0.09375 0.226562 -0.0625 0.28125 -0.0625 C 0.3125 -0.0625 0.335938 -0.0664062 0.359375 -0.078125 Z M 0.359375 -0.078125 "></path></g></g></g></g></g></g></g></svg>